<?xml version="1.0" encoding="UTF-8"?>
<svg id="SVGDoc" xmlns="http://www.w3.org/2000/svg" version="1.1" xmlns:avocode="https://avocode.com/" viewBox="0 0 458.9 236">
  <!-- Generator: Adobe Illustrator 29.5.1, SVG Export Plug-In . SVG Version: 2.1.0 Build 141)  -->
  <defs>
    <style>
      .st0 {
        fill: #887580;
      }

      .st1 {
        fill: #7a6c73;
      }

      .st2 {
        fill: #fafdff;
      }

      .st3 {
        fill: #f4eee4;
      }

      .st4 {
        stroke-linecap: round;
        stroke-linejoin: round;
      }

      .st4, .st5 {
        fill: none;
        stroke: #000;
        stroke-width: 3px;
      }

      .st6 {
        fill: #d06859;
      }

      .st7 {
        fill: #fdc037;
      }

      .st8 {
        fill: #b0c2c2;
      }

      .st5 {
        stroke-miterlimit: 10;
      }

      .st9 {
        fill: #d0e3e3;
      }
    </style>
  </defs>
  <g>
    <path class="st3" d="M435.3,179.7h-241.5V53.9c0-9,7.3-16.2,16.2-16.2h209.1c9,0,16.2,7.3,16.2,16.2v125.9Z"/>
    <path class="st5" d="M435.3,179.7h-241.4V53.9c0-8.9,7.3-16.2,16.2-16.2h209c8.9,0,16.2,7.3,16.2,16.2v125.8Z"/>
  </g>
  <rect class="st9" x="205.8" y="51.9" width="217.5" height="113.7"/>
  <rect class="st9" x="205.8" y="51.9" width="217.5" height="113.7"/>
  <polygon class="st0" points="205.8 51.9 205.8 53.8 421.4 53.8 421.4 163.7 207.7 163.7 207.7 51.9 205.8 51.9 205.8 53.8 205.8 51.9 203.9 51.9 203.9 167.5 425.2 167.5 425.2 50 203.9 50 203.9 51.9 205.8 51.9"/>
  <g>
    <path class="st7" d="M427.3,198.3h-225.4c-10.3,0-18.6-8.3-18.6-18.6h262.5c0,10.3-8.3,18.6-18.6,18.6"/>
    <path class="st5" d="M427.2,198.3h-225.3c-10.3,0-18.6-8.3-18.6-18.5h262.5c0,10.2-8.3,18.5-18.6,18.5Z"/>
  </g>
  <rect class="st2" x="280" y="179.7" width="69.1" height="9.3"/>
  <rect class="st5" x="280" y="179.8" width="69.1" height="9.2"/>
  <rect class="st0" x="225.2" y="174.1" width="28.4" height="5.6"/>
  <rect class="st0" x="375.6" y="174.1" width="28.4" height="5.6"/>
  <rect class="st8" x="207.7" y="53.8" width="213.7" height="5.9"/>
  <polygon class="st1" points="421.5 53.7 207.6 53.7 207.6 59.7 207.7 59.7 207.7 53.8 421.4 53.8 421.4 59.7 421.5 59.7 421.5 53.7"/>
  <path class="st7" d="M149.3,105.2c-6.4,16.8-8.6,59.6-6.5,66.8,2.1,7.2,6.5,14.1,6.5,14.1,0,0,4.4-6.9,6.5-14.1,2.1-7.2,0-50.1-6.5-66.8"/>
  <path class="st4" d="M142.1,162.2h14.5M142.4,168.9h14M149.3,105.2c-6.4,16.8-8.6,59.6-6.5,66.8,2.1,7.2,6.5,14.1,6.5,14.1,0,0,4.4-6.9,6.5-14.1,2.1-7.2,0-50-6.5-66.8Z"/>
  <path class="st3" d="M155.4,176.6c0,3.3-2.7,6-6,6s-6-2.7-6-6c-6.5,0-11.7,5.3-11.7,11.8v9.6h35.6v-9.6c0-6.5-5.3-11.7-11.7-11.8"/>
  <path class="st4" d="M155.4,176.6c0,3.3-2.7,6-6,6s-6-2.7-6-6c-6.5,0-11.7,5.3-11.7,11.7v9.6h35.5v-9.6c0-6.5-5.2-11.7-11.7-11.7Z"/>
  <rect class="st2" x="14.1" y="145.6" width="87.5" height="52.3"/>
  <path class="st4" d="M92.6,143v5.3M83.9,143v5.3M75.2,143v5.3M66.5,143v5.3M57.8,143v5.3M49.1,143v5.3M40.4,143v5.3M31.8,143v5.3M23.1,143v5.3M101.5,145.7H14.1v52.3h87.5v-52.3Z"/>
  <polygon class="st6" points="101.6 151.6 113.9 198 101.6 198 101.6 151.6"/>
  <polygon class="st4" points="101.6 151.6 113.9 197.9 101.6 197.9 101.6 151.6"/>
</svg>