<?xml version="1.0" encoding="UTF-8"?>
<svg id="SVGDoc" xmlns="http://www.w3.org/2000/svg" version="1.1" xmlns:avocode="https://avocode.com/" viewBox="0 0 236 236">
  <!-- Generator: Adobe Illustrator 29.5.1, SVG Export Plug-In . SVG Version: 2.1.0 Build 141)  -->
  <defs>
    <style>
      .st0 {
        fill: #5f3a19;
      }

      .st1 {
        fill: #f15b2c;
      }

      .st2 {
        fill: #fdc038;
      }

      .st3 {
        fill: #fff;
      }

      .st4, .st5, .st6 {
        fill: none;
        stroke: #333331;
        stroke-linecap: round;
        stroke-linejoin: round;
      }

      .st7 {
        fill: #414142;
      }

      .st8 {
        fill: #333331;
      }

      .st5 {
        stroke-width: 3px;
      }

      .st9 {
        fill: #f79422;
      }

      .st6 {
        stroke-width: 2px;
      }
    </style>
  </defs>
  <path class="st8" d="M94.8,75.3c.5-1.1,1.6-1.7,2.5-1.3.9.4,1.2,1.6.6,2.8-.5,1.1-1.6,1.7-2.5,1.3-.9-.4-1.2-1.6-.6-2.8"/>
  <rect class="st2" x="98.1" y="93.5" width="6.9" height="2.8" transform="translate(-27.3 147) rotate(-65.1)"/>
  <polygon class="st5" points="101.3 98.5 98.9 97.4 101.7 91.3 104.2 92.4 101.3 98.5"/>
  <rect class="st2" x="127.4" y="103.5" width="6.9" height="2.8" transform="translate(-19.4 179.4) rotate(-65.1)"/>
  <polygon class="st5" points="130.6 108.5 128.2 107.4 131 101.3 133.4 102.4 130.6 108.5"/>
  <g>
    <path class="st2" d="M165.5,161.8l-24.4-11.3c-2.7-1.3-6.3.5-7.9,4l-.4.8-2.3,4.9-15.7,33.8-2.3,4.9-.4.8c-1.6,3.5-.7,7.4,2,8.6l24.4,11.3c2.7,1.3,6.3-.5,7.9-4l.4-.8,2.3-4.9,15.7-33.8,2.3-4.9.4-.8c1.6-3.5.7-7.4-2-8.6"/>
    <path class="st5" d="M165.3,155.8l-19.7-9.1c-4-1.9-8.8-.1-10.7,3.9l-22.3,48.1c-1.9,4-.1,8.8,3.9,10.7l19.7,9.1c4,1.9,8.8.1,10.7-3.9l22.3-48.1c1.9-4,.1-8.8-3.9-10.7Z"/>
  </g>
  <rect class="st3" x="119.6" y="163.6" width="42.7" height="37.9" transform="translate(-84 233.5) rotate(-65.1)"/>
  <rect class="st5" x="119.7" y="163.7" width="42.5" height="37.7" transform="translate(-84 233.5) rotate(-65.1)"/>
  <g>
    <path class="st3" d="M126.8,206.3c.7-1.4,2.1-2.2,3.3-1.7,1.1.5,1.5,2.1.8,3.6-.7,1.4-2.1,2.2-3.3,1.7-1.1-.5-1.5-2.1-.8-3.6"/>
    <path class="st5" d="M126.9,206.4c.6-1.4,2.1-2.1,3.1-1.6,1.1.5,1.4,2.1.8,3.5-.6,1.4-2.1,2.1-3.1,1.6-1.1-.5-1.4-2.1-.8-3.5Z"/>
    <path class="st8" d="M157,160.9l-10.8-5c-.6-.3-.9-1-.6-1.6l.8-1.6c.3-.6,1-.9,1.6-.6l10.8,5c.6.3.9,1,.6,1.6l-.8,1.6c-.3.6-1,.9-1.6.6"/>
  </g>
  <rect class="st2" x="115" y="184.1" width="5.3" height="2.1" transform="translate(-99.8 213.9) rotate(-65.1)"/>
  <polygon class="st5" points="117.5 188 115.7 187.1 117.8 182.4 119.7 183.3 117.5 188"/>
  <g>
    <path class="st3" d="M-118.2,118.7c0-16.3,13.2-29.5,29.5-29.5s29.5,13.2,29.5,29.5-13.2,29.5-29.5,29.5-29.5-13.2-29.5-29.5"/>
    <circle class="st5" cx="-88.6" cy="118.7" r="29.5"/>
    <path class="st3" d="M-57.1,115.7h-10.4c-1.5-10.3-10.4-18.3-21.1-18.3s-21.3,9.6-21.3,21.3,9.6,21.3,21.3,21.3,19.6-7.9,21.1-18.3h10.4c1.7,0,3.1-1.4,3.1-3.1s-1.4-3.1-3.1-3.1"/>
    <path class="st5" d="M-57.2,115.7h-10.4c-1.5-10.3-10.3-18.2-21.1-18.2s-21.3,9.5-21.3,21.3,9.5,21.3,21.3,21.3,19.6-7.9,21.1-18.2h10.4c1.7,0,3.1-1.4,3.1-3.1s-1.4-3.1-3.1-3.1Z"/>
    <path class="st0" d="M-105.6,118.7c0-9.3,7.6-16.9,16.9-16.9s16.9,7.6,16.9,16.9-7.6,16.9-16.9,16.9-16.9-7.6-16.9-16.9"/>
    <path class="st4" d="M-105.5,118.7c0-9.3,7.6-16.9,16.9-16.9s16.9,7.6,16.9,16.9-7.6,16.9-16.9,16.9-16.9-7.6-16.9-16.9Z"/>
    <path class="st3" d="M-77.9,107.1c-2.9-2.7-6.7-4.2-10.8-4.2-8.8,0-15.9,7.1-15.9,15.9s1.5,7.9,4.2,10.8c-.5-1.7-.8-3.5-.8-5.3,0-9.9,8.1-17.9,17.9-17.9s3.6.3,5.3.8"/>
    <path class="st3" d="M99.9,172.2L-27,122.6c-4.6-1.8-6.9-7.1-5.1-11.7L-1,31.4l143.7,56.1-31.1,79.5c-1.8,4.6-7.1,6.9-11.7,5.1"/>
    <path class="st6" d="M99.9,172.1L-26.9,122.6c-4.6-1.8-6.9-7-5.1-11.7L-1,31.5l143.6,56.1-31,79.4c-1.8,4.6-7,6.9-11.7,5.1Z"/>
  </g>
  <polygon class="st9" points="142.7 87.6 -1 31.4 -2.1 14.6 154.8 75.9 142.7 87.6"/>
  <polygon class="st6" points="142.6 87.5 -1 31.4 -2 14.7 154.8 75.9 142.6 87.5"/>
  <g>
    <path class="st3" d="M153.4,66.3L5.5,8.6c-2.5-1-5.3.3-6.3,2.8l-1.3,3.3,156.9,61.3,1.3-3.3c1-2.5-.3-5.3-2.8-6.3"/>
    <path class="st6" d="M153.3,66.3L5.5,8.6c-2.5-1-5.3.3-6.3,2.7l-1.3,3.3,156.8,61.2,1.3-3.3c1-2.5-.3-5.3-2.7-6.3Z"/>
  </g>
  <polygon class="st3" points="4.2 27.6 3.9 22.8 144.9 77.9 141.4 81.2 4.2 27.6"/>
  <polygon class="st6" points="4.2 27.7 3.9 22.8 144.9 77.8 141.4 81.2 4.2 27.7"/>
  <polygon class="st3" points="4.2 27.6 3.9 22.8 144.9 77.9 141.4 81.2 4.2 27.6"/>
  <polygon class="st6" points="4.2 27.7 3.9 22.8 144.9 77.8 141.4 81.2 4.2 27.7"/>
  <rect class="st7" x="33.1" y="112.3" width="18.6" height="39.6" transform="translate(-96.1 123.6) rotate(-68.7)"/>
  <rect class="st6" x="33.2" y="112.4" width="18.6" height="39.5" transform="translate(-96.1 123.6) rotate(-68.7)"/>
  <line class="st6" x1="22.8" y1="128.2" x2="34.7" y2="132.8"/>
  <line class="st6" x1="47.6" y1="137.9" x2="59.5" y2="142.5"/>
  <rect class="st2" x="-10.7" y="88.3" width="7.8" height="7.8" transform="translate(-90.2 52.2) rotate(-68.7)"/>
  <rect class="st6" x="-10.7" y="88.3" width="7.7" height="7.7" transform="translate(-90.2 52.2) rotate(-68.7)"/>
  <rect class="st2" x="1.6" y="93.1" width="7.8" height="7.8" transform="translate(-86.9 66.8) rotate(-68.7)"/>
  <rect class="st6" x="1.6" y="93.1" width="7.7" height="7.7" transform="translate(-86.9 66.8) rotate(-68.7)"/>
  <polygon class="st2" points="64.7 115.9 15.5 96.7 12.7 104 61.8 123.2 69.1 126 71.9 118.8 64.7 115.9"/>
  <polygon class="st6" points="64.6 115.9 15.6 96.8 12.8 104 61.8 123.1 69 125.9 71.8 118.7 64.6 115.9"/>
  <rect class="st2" x="75.3" y="121.9" width="7.8" height="7.8" transform="translate(-66.8 153.7) rotate(-68.7)"/>
  <rect class="st6" x="75.3" y="121.9" width="7.7" height="7.7" transform="translate(-66.8 153.7) rotate(-68.7)"/>
  <rect class="st2" x="87.6" y="126.7" width="7.8" height="7.8" transform="translate(-63.5 168.2) rotate(-68.7)"/>
  <rect class="st6" x="87.6" y="126.7" width="7.7" height="7.7" transform="translate(-63.5 168.2) rotate(-68.7)"/>
  <polygon class="st2" points="7.6 80.9 -4.7 76.1 -7.5 83.3 4.7 88.1 12 90.9 14.8 83.7 7.6 80.9"/>
  <polygon class="st6" points="7.6 80.9 -4.7 76.1 -7.5 83.3 4.7 88.1 11.9 90.9 14.7 83.7 7.6 80.9"/>
  <rect class="st2" x="18.2" y="86.8" width="7.8" height="7.8" transform="translate(-70.4 78.2) rotate(-68.7)"/>
  <rect class="st6" x="18.2" y="86.9" width="7.7" height="7.7" transform="translate(-70.4 78.2) rotate(-68.7)"/>
  <rect class="st2" x="30.5" y="91.6" width="7.8" height="7.8" transform="translate(-67.1 92.7) rotate(-68.7)"/>
  <rect class="st6" x="30.5" y="91.7" width="7.7" height="7.7" transform="translate(-67.1 92.7) rotate(-68.7)"/>
  <rect class="st2" x="42.7" y="96.4" width="7.8" height="7.8" transform="translate(-63.8 107.2) rotate(-68.7)"/>
  <rect class="st6" x="42.8" y="96.5" width="7.7" height="7.7" transform="translate(-63.8 107.2) rotate(-68.7)"/>
  <rect class="st2" x="79.6" y="110.8" width="7.8" height="7.8" transform="translate(-53.7 150.7) rotate(-68.7)"/>
  <rect class="st6" x="79.6" y="110.9" width="7.7" height="7.7" transform="translate(-53.7 150.7) rotate(-68.7)"/>
  <rect class="st2" x="91.9" y="115.6" width="7.8" height="7.8" transform="translate(-50.4 165.2) rotate(-68.7)"/>
  <rect class="st6" x="91.9" y="115.7" width="7.7" height="7.7" transform="translate(-50.4 165.2) rotate(-68.7)"/>
  <polygon class="st2" points="105.9 119.3 103 126.5 98.7 137.6 105.9 140.4 110.3 129.3 113.1 122.1 105.9 119.3"/>
  <polygon class="st6" points="105.9 119.3 103 126.5 98.8 137.5 105.9 140.3 110.2 129.3 113 122.1 105.9 119.3"/>
  <rect class="st2" x="-2.1" y="66.1" width="7.8" height="7.8" transform="translate(-64.1 46.2) rotate(-68.7)"/>
  <rect class="st6" x="-2" y="66.2" width="7.7" height="7.7" transform="translate(-64.1 46.2) rotate(-68.7)"/>
  <rect class="st2" x="10.2" y="70.9" width="7.8" height="7.8" transform="translate(-60.7 60.7) rotate(-68.7)"/>
  <rect class="st6" x="10.3" y="71" width="7.7" height="7.7" transform="translate(-60.7 60.7) rotate(-68.7)"/>
  <rect class="st2" x="22.5" y="75.7" width="7.8" height="7.8" transform="translate(-57.4 75.2) rotate(-68.7)"/>
  <rect class="st6" x="22.6" y="75.8" width="7.7" height="7.7" transform="translate(-57.4 75.2) rotate(-68.7)"/>
  <rect class="st2" x="34.8" y="80.5" width="7.8" height="7.8" transform="translate(-54 89.7) rotate(-68.7)"/>
  <rect class="st6" x="34.8" y="80.6" width="7.7" height="7.7" transform="translate(-54 89.7) rotate(-68.7)"/>
  <rect class="st2" x="47.1" y="85.3" width="7.8" height="7.8" transform="translate(-50.7 104.2) rotate(-68.7)"/>
  <rect class="st6" x="47.1" y="85.4" width="7.7" height="7.7" transform="translate(-50.7 104.2) rotate(-68.7)"/>
  <rect class="st2" x="59.4" y="90.1" width="7.8" height="7.8" transform="translate(-47.3 118.7) rotate(-68.7)"/>
  <rect class="st6" x="59.4" y="90.2" width="7.7" height="7.7" transform="translate(-47.3 118.7) rotate(-68.7)"/>
  <polygon class="st2" points="73.3 93.8 69 104.9 63.9 102.9 56.7 100.1 53.9 107.3 61.1 110.1 66.2 112.1 73.4 114.9 76.2 107.7 80.6 96.6 73.3 93.8"/>
  <polygon class="st6" points="73.3 93.8 69 104.9 64 102.9 56.8 100.1 53.9 107.3 61.1 110.1 66.2 112 73.4 114.9 76.2 107.7 80.5 96.6 73.3 93.8"/>
  <rect class="st2" x="83.9" y="99.7" width="7.8" height="7.8" transform="translate(-40.7 147.7) rotate(-68.7)"/>
  <rect class="st6" x="84" y="99.8" width="7.7" height="7.7" transform="translate(-40.7 147.7) rotate(-68.7)"/>
  <rect class="st2" x="96.2" y="104.5" width="7.8" height="7.8" transform="translate(-37.3 162.2) rotate(-68.7)"/>
  <rect class="st6" x="96.3" y="104.6" width="7.7" height="7.7" transform="translate(-37.3 162.2) rotate(-68.7)"/>
  <rect class="st2" x="108.5" y="109.3" width="7.8" height="7.8" transform="translate(-34 176.7) rotate(-68.7)"/>
  <rect class="st6" x="108.5" y="109.4" width="7.7" height="7.7" transform="translate(-34 176.7) rotate(-68.7)"/>
  <polygon class="st2" points="16.2 58.7 3.9 53.9 1.1 61.1 13.4 65.9 20.6 68.8 23.5 61.5 16.2 58.7"/>
  <polygon class="st6" points="16.2 58.7 4 54 1.2 61.1 13.4 65.9 20.6 68.7 23.4 61.5 16.2 58.7"/>
  <rect class="st2" x="26.8" y="64.7" width="7.8" height="7.8" transform="translate(-44.3 72.2) rotate(-68.7)"/>
  <rect class="st6" x="26.9" y="64.7" width="7.7" height="7.7" transform="translate(-44.3 72.2) rotate(-68.7)"/>
  <rect class="st2" x="39.1" y="69.5" width="7.8" height="7.8" transform="translate(-40.9 86.7) rotate(-68.7)"/>
  <rect class="st6" x="39.2" y="69.5" width="7.7" height="7.7" transform="translate(-40.9 86.7) rotate(-68.7)"/>
  <rect class="st2" x="51.4" y="74.2" width="7.8" height="7.8" transform="translate(-37.6 101.2) rotate(-68.7)"/>
  <rect class="st6" x="51.5" y="74.3" width="7.7" height="7.7" transform="translate(-37.6 101.2) rotate(-68.7)"/>
  <rect class="st2" x="63.7" y="79" width="7.8" height="7.8" transform="translate(-34.3 115.7) rotate(-68.7)"/>
  <rect class="st6" x="63.7" y="79.1" width="7.7" height="7.7" transform="translate(-34.3 115.7) rotate(-68.7)"/>
  <rect class="st2" x="76" y="83.9" width="7.8" height="7.8" transform="translate(-30.9 130.2) rotate(-68.7)"/>
  <rect class="st6" x="76" y="83.9" width="7.7" height="7.7" transform="translate(-30.9 130.2) rotate(-68.7)"/>
  <rect class="st2" x="88.3" y="88.6" width="7.8" height="7.8" transform="translate(-27.6 144.7) rotate(-68.7)"/>
  <rect class="st6" x="88.3" y="88.7" width="7.7" height="7.7" transform="translate(-27.6 144.7) rotate(-68.7)"/>
  <rect class="st2" x="100.5" y="93.4" width="7.8" height="7.8" transform="translate(-24.2 159.2) rotate(-68.7)"/>
  <rect class="st6" x="100.6" y="93.5" width="7.7" height="7.7" transform="translate(-24.2 159.2) rotate(-68.7)"/>
  <rect class="st2" x="112.8" y="98.2" width="7.8" height="7.8" transform="translate(-20.9 173.7) rotate(-68.7)"/>
  <rect class="st6" x="112.9" y="98.3" width="7.7" height="7.7" transform="translate(-20.9 173.7) rotate(-68.7)"/>
  <rect class="st2" x="6.6" y="44" width="7.8" height="7.8" transform="translate(-37.9 40.2) rotate(-68.7)"/>
  <rect class="st6" x="6.6" y="44" width="7.7" height="7.7" transform="translate(-37.9 40.2) rotate(-68.7)"/>
  <rect class="st2" x="18.9" y="48.8" width="7.8" height="7.8" transform="translate(-34.6 54.7) rotate(-68.7)"/>
  <rect class="st6" x="18.9" y="48.8" width="7.7" height="7.7" transform="translate(-34.6 54.7) rotate(-68.7)"/>
  <rect class="st2" x="31.2" y="53.6" width="7.8" height="7.8" transform="translate(-31.2 69.2) rotate(-68.7)"/>
  <rect class="st6" x="31.2" y="53.6" width="7.7" height="7.7" transform="translate(-31.2 69.2) rotate(-68.7)"/>
  <rect class="st2" x="43.5" y="58.4" width="7.8" height="7.8" transform="translate(-27.9 83.7) rotate(-68.7)"/>
  <rect class="st6" x="43.5" y="58.4" width="7.7" height="7.7" transform="translate(-27.9 83.7) rotate(-68.7)"/>
  <rect class="st2" x="55.7" y="63.2" width="7.8" height="7.8" transform="translate(-24.5 98.2) rotate(-68.7)"/>
  <rect class="st6" x="55.8" y="63.2" width="7.7" height="7.7" transform="translate(-24.5 98.2) rotate(-68.7)"/>
  <rect class="st2" x="68" y="68" width="7.8" height="7.8" transform="translate(-21.2 112.7) rotate(-68.7)"/>
  <rect class="st6" x="68.1" y="68" width="7.7" height="7.7" transform="translate(-21.2 112.7) rotate(-68.7)"/>
  <rect class="st2" x="80.3" y="72.8" width="7.8" height="7.8" transform="translate(-17.8 127.2) rotate(-68.7)"/>
  <rect class="st6" x="80.3" y="72.8" width="7.7" height="7.7" transform="translate(-17.8 127.2) rotate(-68.7)"/>
  <rect class="st2" x="92.6" y="77.6" width="7.8" height="7.8" transform="translate(-14.5 141.7) rotate(-68.7)"/>
  <rect class="st6" x="92.6" y="77.6" width="7.7" height="7.7" transform="translate(-14.5 141.7) rotate(-68.7)"/>
  <rect class="st2" x="104.9" y="82.4" width="7.8" height="7.8" transform="translate(-11.2 156.2) rotate(-68.7)"/>
  <rect class="st6" x="104.9" y="82.4" width="7.7" height="7.7" transform="translate(-11.2 156.2) rotate(-68.7)"/>
  <rect class="st2" x="117.2" y="87.2" width="7.8" height="7.8" transform="translate(-7.8 170.6) rotate(-68.7)"/>
  <rect class="st6" x="117.2" y="87.2" width="7.7" height="7.7" transform="translate(-7.8 170.7) rotate(-68.7)"/>
  <rect class="st3" x="-25.5" y="144.3" width="56.3" height="101.1" transform="translate(-177.4 120.2) rotate(-66.7)"/>
  <rect class="st5" x="-25.5" y="144.3" width="56.2" height="101" transform="translate(-177.4 120.3) rotate(-66.7)"/>
  <rect class="st1" x="-19.2" y="153.4" width="47" height="92.3" transform="translate(-180.7 124.6) rotate(-66.7)"/>
  <path class="st5" d="M-39.8,176.6c.9-2.2,3.5-3.2,5.7-2.3,2.2.9,3.2,3.5,2.3,5.7-.9,2.2-3.5,3.2-5.7,2.3-2.2-.9-3.2-3.5-2.3-5.7ZM-11.9,174.4l-11.1-4.8M-15.4,182.4l-11.1-4.8M-18.8,190.3l-11.1-4.8M-22.2,198.3l-11.1-4.8M-37,202l69.3,29.8M-19.4,161.2l69.3,29.8M52.2,185.6l-22.2,51.6M-17.1,155.8l-22.2,51.6"/>
  <rect class="st2" x="45.8" y="213.2" width="11.4" height="5.2" transform="translate(-167.1 177.8) rotate(-66.7)"/>
  <polygon class="st4" points="51.6 222.1 46.9 220 51.3 209.6 56.1 211.7 51.6 222.1"/>
  <path class="st2" d="M53.8,226.1l-2.4,2.6,44.6-28.1c-.7-.3-1.5-.2-2.2.2l-40,25.2Z"/>
  <polygon class="st5" points="89.1 202.7 53.2 225.2 57 231.2 92.8 208.7 89.1 202.7"/>
  <g>
    <path class="st2" d="M94.6,199.2l-5.5,3.4,3.8,6,5.5-3.4c1-.6,1.2-1.9.6-2.8l-1.6-2.5c-.6-1-1.9-1.2-2.8-.6"/>
    <path class="st5" d="M49.5,229.4l2.2,3.4M44.5,234.9l12.5-3.7-3.8-6-8.7,9.6ZM94.5,199.2l-5.5,3.4,3.8,6,5.5-3.4c1-.6,1.2-1.9.6-2.8l-1.6-2.5c-.6-1-1.9-1.2-2.8-.6Z"/>
  </g>
</svg>