<?xml version="1.0" encoding="UTF-8"?>
<svg id="SVGDoc" xmlns="http://www.w3.org/2000/svg" version="1.1" xmlns:avocode="https://avocode.com/" viewBox="0 0 550.2 538">
  <!-- Generator: Adobe Illustrator 29.5.1, SVG Export Plug-In . SVG Version: 2.1.0 Build 141)  -->
  <defs>
    <style>
      .st0 {
        stroke-width: 2px;
      }

      .st0, .st1, .st2, .st3, .st4, .st5 {
        fill: none;
        stroke: #333431;
        stroke-linecap: round;
        stroke-linejoin: round;
      }

      .st6 {
        fill: #fff;
      }

      .st7 {
        fill: #f05a2c;
      }

      .st8 {
        fill: #333431;
      }

      .st2 {
        stroke-width: 3px;
      }

      .st3 {
        stroke-width: 2px;
      }

      .st4 {
        stroke-width: 3px;
      }

      .st9 {
        fill: #5f3a19;
      }

      .st10 {
        fill: #fdc037;
      }

      .st11 {
        fill: #424143;
      }

      .st5 {
        stroke-width: 3px;
      }

      .st12 {
        fill: #f69321;
      }
    </style>
  </defs>
  <path class="st8" d="M468.7,252.2c.9-1.9,2.8-2.9,4.3-2.2,1.5.7,2,2.8,1.1,4.7-.9,1.9-2.8,2.9-4.3,2.2-1.5-.7-2-2.8-1.1-4.7"/>
  <rect class="st10" x="474.3" y="283.2" width="11.7" height="4.7" transform="translate(19 600.8) rotate(-65.1)"/>
  <polygon class="st5" points="479.8 291.8 475.8 289.8 480.5 279.4 484.7 281.4 479.8 291.8"/>
  <rect class="st10" x="466.3" y="300.3" width="11.7" height="4.7" transform="translate(-1.2 603.5) rotate(-65.1)"/>
  <polygon class="st5" points="471.9 308.9 467.8 307 472.6 296.5 476.7 298.5 471.9 308.9"/>
  <g>
    <path class="st10" d="M531.3,399.6l-41.7-19.3c-4.7-2.1-10.7.9-13.5,6.9l-.7,1.3-3.9,8.5-26.7,57.6-3.9,8.5-.7,1.3c-2.8,6-1.2,12.6,3.4,14.7l41.7,19.3c4.7,2.1,10.7-.9,13.5-6.9l.7-1.3,3.9-8.5,26.7-57.6,3.9-8.5.7-1.3c2.8-6,1.2-12.6-3.4-14.7"/>
    <path class="st5" d="M531.1,389.5l-33.5-15.5c-6.9-3.2-15-.2-18.2,6.7l-38,81.9c-3.2,6.9-.2,15.1,6.7,18.2l33.5,15.5c6.9,3.2,15,.2,18.2-6.7l38-81.9c3.2-6.9.2-15.1-6.7-18.2Z"/>
  </g>
  <rect class="st6" x="453.1" y="402.7" width="72.7" height="64.6" transform="translate(-111.2 695.8) rotate(-65.1)"/>
  <rect class="st2" x="453.2" y="402.8" width="72.6" height="64.4" transform="translate(-111.2 695.8) rotate(-65.1)"/>
  <g>
    <path class="st6" d="M465.4,475.7c1.1-2.4,3.6-3.7,5.6-2.8s2.5,3.6,1.4,6-3.6,3.7-5.6,2.8-2.5-3.6-1.4-6"/>
    <path class="st5" d="M465.6,475.7c1.1-2.4,3.5-3.6,5.4-2.8s2.5,3.5,1.4,5.9c-1.1,2.4-3.5,3.6-5.4,2.8s-2.5-3.5-1.4-5.9Z"/>
    <path class="st8" d="M516.9,398.2l-18.4-8.6c-1-.5-1.5-1.8-1-2.8l1.3-2.8c.5-1,1.8-1.5,2.8-1l18.4,8.6c1,.5,1.5,1.8,1,2.8l-1.3,2.8c-.5,1-1.8,1.5-2.8,1"/>
  </g>
  <rect class="st10" x="445.3" y="437.7" width="9" height="3.6" transform="translate(-138.2 662.4) rotate(-65.1)"/>
  <polygon class="st5" points="449.6 444.3 446.5 442.9 450.1 434.9 453.2 436.3 449.6 444.3"/>
  <g>
    <path class="st6" d="M47.8,326.3c0-27.8,22.5-50.3,50.3-50.3s50.3,22.5,50.3,50.3-22.5,50.3-50.3,50.3-50.3-22.5-50.3-50.3"/>
    <circle class="st5" cx="98.1" cy="326.3" r="50.2"/>
    <path class="st6" d="M152,321.1h-17.8c-2.5-17.6-17.7-31.2-36-31.2s-36.4,16.3-36.4,36.4,16.3,36.4,36.4,36.4,33.5-13.6,36-31.2h17.8c2.9,0,5.2-2.3,5.2-5.2s-2.3-5.2-5.2-5.2"/>
    <path class="st5" d="M151.8,321.1h-17.8c-2.5-17.6-17.7-31.1-35.9-31.1s-36.3,16.2-36.3,36.3,16.3,36.3,36.3,36.3,33.4-13.5,35.9-31.1h17.8c2.9,0,5.2-2.3,5.2-5.2s-2.3-5.2-5.2-5.2h0Z"/>
    <path class="st9" d="M69.3,326.3c0-15.9,12.9-28.8,28.8-28.8s28.8,12.9,28.8,28.8-12.9,28.8-28.8,28.8-28.8-12.9-28.8-28.8"/>
    <path class="st1" d="M69.4,326.3c0-15.9,12.9-28.8,28.8-28.8s28.8,12.9,28.8,28.8-12.9,28.8-28.8,28.8-28.8-12.9-28.8-28.8Z"/>
    <path class="st6" d="M116.5,306.4c-4.9-4.6-11.4-7.2-18.4-7.2-15,0-27.1,12.2-27.1,27.1s2.6,13.5,7.2,18.4c-.9-3-1.4-6-1.4-9.1,0-16.8,13.8-30.6,30.6-30.6s6.1.5,9.1,1.4"/>
    <path class="st6" d="M419.6,417.5l-216.3-84.6c-7.9-3.1-11.8-12-8.7-19.9l52.9-135.5,245,95.7-52.9,135.5c-3.1,7.9-12,11.8-19.9,8.7"/>
    <path class="st0" d="M419.5,417.4l-216.2-84.5c-7.9-3.1-11.8-12-8.7-19.9l52.9-135.4,244.8,95.6-52.9,135.4c-3.1,7.9-12,11.8-19.9,8.7h0Z"/>
  </g>
  <polygon class="st12" points="492.5 273.2 247.5 177.5 245.7 148.8 513.1 253.3 492.5 273.2"/>
  <polygon class="st0" points="492.4 273.1 247.6 177.5 245.8 148.9 513.1 253.3 492.4 273.1"/>
  <g>
    <path class="st6" d="M510.7,237l-252.1-98.5c-4.3-1.7-9,.5-10.7,4.7l-2.2,5.7,267.5,104.6,2.2-5.7c1.7-4.3-.5-9-4.7-10.7"/>
    <path class="st0" d="M510.6,236.9l-252-98.3c-4.3-1.7-9,.5-10.7,4.7l-2.2,5.7,267.3,104.4,2.2-5.7c1.7-4.3-.5-9-4.7-10.7h0Z"/>
  </g>
  <polygon class="st6" points="256.3 171 255.9 162.7 496.3 256.6 490.4 262.4 256.3 171"/>
  <polygon class="st0" points="256.4 171.1 256 162.8 496.2 256.5 490.3 262.3 256.4 171.1"/>
  <polygon class="st6" points="256.3 171 255.9 162.7 496.3 256.6 490.4 262.4 256.3 171"/>
  <polygon class="st0" points="256.4 171.1 256 162.8 496.2 256.5 490.3 262.3 256.4 171.1"/>
  <rect class="st11" x="305.6" y="315.1" width="31.7" height="67.4" transform="translate(-120.3 521.6) rotate(-68.7)"/>
  <rect class="st3" x="305.7" y="315.3" width="31.6" height="67.3" transform="translate(-120.4 521.7) rotate(-68.7)"/>
  <line class="st0" x1="288.1" y1="342.5" x2="308.5" y2="350.3"/>
  <line class="st0" x1="330.4" y1="359" x2="350.7" y2="366.9"/>
  <rect class="st10" x="230.9" y="274.2" width="13.2" height="13.2" transform="translate(-110.4 400.1) rotate(-68.7)"/>
  <rect class="st3" x="231" y="274.3" width="13.1" height="13.1" transform="translate(-110.4 400.1) rotate(-68.7)"/>
  <rect class="st10" x="251.8" y="282.4" width="13.2" height="13.2" transform="translate(-104.7 424.8) rotate(-68.7)"/>
  <rect class="st3" x="251.9" y="282.5" width="13.1" height="13.1" transform="translate(-104.7 424.8) rotate(-68.7)"/>
  <polygon class="st10" points="359.5 321.6 275.7 288.8 270.9 301.1 354.6 333.8 367 338.7 371.8 326.4 359.5 321.6"/>
  <polygon class="st0" points="359.4 321.5 275.8 288.9 271 301.2 354.6 333.8 366.9 338.6 371.7 326.3 359.4 321.5"/>
  <rect class="st10" x="377.4" y="331.5" width="13.2" height="13.2" transform="translate(-70.5 573.1) rotate(-68.7)"/>
  <rect class="st3" x="377.5" y="331.5" width="13.1" height="13.1" transform="translate(-70.4 573.1) rotate(-68.7)"/>
  <rect class="st10" x="398.4" y="339.6" width="13.2" height="13.2" transform="translate(-64.7 597.7) rotate(-68.7)"/>
  <rect class="st3" x="398.3" y="339.7" width="13.1" height="13.1" transform="translate(-64.8 597.7) rotate(-68.7)"/>
  <polygon class="st10" points="262.2 261.8 241.3 253.6 236.4 265.8 257.3 274 269.6 278.9 274.5 266.6 262.2 261.8"/>
  <polygon class="st0" points="262.1 261.8 241.3 253.7 236.5 265.8 257.3 274 269.6 278.8 274.4 266.6 262.1 261.8"/>
  <rect class="st10" x="280.1" y="271.7" width="13.2" height="13.2" transform="translate(-76.7 444.3) rotate(-68.7)"/>
  <rect class="st3" x="280.2" y="271.7" width="13.1" height="13.1" transform="translate(-76.6 444.4) rotate(-68.7)"/>
  <rect class="st10" x="301" y="279.9" width="13.2" height="13.2" transform="translate(-71 469) rotate(-68.7)"/>
  <rect class="st3" x="301.1" y="279.9" width="13.1" height="13.1" transform="translate(-71 469.1) rotate(-68.7)"/>
  <rect class="st10" x="322" y="288.1" width="13.2" height="13.2" transform="translate(-65.3 493.8) rotate(-68.7)"/>
  <rect class="st3" x="322.1" y="288.1" width="13.1" height="13.1" transform="translate(-65.3 493.9) rotate(-68.7)"/>
  <rect class="st10" x="384.9" y="312.6" width="13.2" height="13.2" transform="translate(-48.1 568) rotate(-68.7)"/>
  <rect class="st3" x="384.8" y="312.6" width="13.1" height="13.1" transform="translate(-48.1 567.8) rotate(-68.7)"/>
  <rect class="st10" x="405.7" y="320.7" width="13.2" height="13.2" transform="translate(-42.4 592.5) rotate(-68.7)"/>
  <rect class="st3" x="405.7" y="320.7" width="13.1" height="13.1" transform="translate(-42.4 592.5) rotate(-68.7)"/>
  <polygon class="st10" points="429.7 327.2 424.9 339.5 417.5 358.4 429.8 363.2 437.1 344.4 442 332 429.7 327.2"/>
  <polygon class="st0" points="429.7 327.3 424.9 339.5 417.6 358.3 429.8 363.1 437.1 344.4 441.9 332.1 429.7 327.3"/>
  <rect class="st10" x="245.6" y="236.5" width="13.2" height="13.2" transform="translate(-65.9 389.8) rotate(-68.7)"/>
  <rect class="st3" x="245.7" y="236.5" width="13.1" height="13.1" transform="translate(-65.8 389.8) rotate(-68.7)"/>
  <rect class="st10" x="266.5" y="244.6" width="13.2" height="13.2" transform="translate(-60.2 414.4) rotate(-68.7)"/>
  <rect class="st3" x="266.6" y="244.6" width="13.1" height="13.1" transform="translate(-60.1 414.5) rotate(-68.7)"/>
  <rect class="st10" x="287.4" y="252.8" width="13.2" height="13.2" transform="translate(-54.5 439.1) rotate(-68.7)"/>
  <rect class="st3" x="287.6" y="252.9" width="13.1" height="13.1" transform="translate(-54.4 439.3) rotate(-68.7)"/>
  <rect class="st10" x="308.5" y="261" width="13.2" height="13.2" transform="translate(-48.7 463.9) rotate(-68.7)"/>
  <rect class="st3" x="308.5" y="261.1" width="13.1" height="13.1" transform="translate(-48.7 464) rotate(-68.7)"/>
  <rect class="st10" x="329.4" y="269.1" width="13.2" height="13.2" transform="translate(-42.9 488.6) rotate(-68.7)"/>
  <rect class="st3" x="329.3" y="269.3" width="13.1" height="13.1" transform="translate(-43.1 488.6) rotate(-68.7)"/>
  <rect class="st10" x="350.3" y="277.3" width="13.2" height="13.2" transform="translate(-37.3 513.3) rotate(-68.7)"/>
  <rect class="st3" x="350.3" y="277.3" width="13.1" height="13.1" transform="translate(-37.3 513.2) rotate(-68.7)"/>
  <polygon class="st10" points="374.3 283.8 366.8 302.7 358.3 299.2 345.9 294.5 341.1 306.8 353.4 311.6 362.1 315 374.4 319.8 379.2 307.4 386.5 288.5 374.3 283.8"/>
  <polygon class="st0" points="374.2 283.9 366.8 302.7 358.3 299.3 346 294.5 341.2 306.8 353.4 311.5 362.1 314.9 374.4 319.7 379.1 307.4 386.5 288.6 374.2 283.9"/>
  <rect class="st10" x="392.2" y="293.7" width="13.2" height="13.2" transform="translate(-25.8 562.7) rotate(-68.7)"/>
  <rect class="st3" x="392.2" y="293.6" width="13.1" height="13.1" transform="translate(-25.8 562.7) rotate(-68.7)"/>
  <rect class="st10" x="413.1" y="301.9" width="13.2" height="13.2" transform="translate(-20.2 587.4) rotate(-68.7)"/>
  <rect class="st3" x="413.1" y="301.9" width="13.1" height="13.1" transform="translate(-20.1 587.4) rotate(-68.7)"/>
  <rect class="st10" x="434.1" y="310.1" width="13.2" height="13.2" transform="translate(-14.5 612.2) rotate(-68.7)"/>
  <rect class="st3" x="434.1" y="310.1" width="13.1" height="13.1" transform="translate(-14.4 612.2) rotate(-68.7)"/>
  <polygon class="st10" points="276.9 224 256 215.8 251.1 228.1 272.1 236.3 284.4 241.1 289.3 228.7 276.9 224"/>
  <polygon class="st0" points="276.9 224 256 215.9 251.2 228.1 272.1 236.3 284.3 241 289.2 228.7 276.9 224"/>
  <rect class="st10" x="294.9" y="233.9" width="13.2" height="13.2" transform="translate(-32.2 434) rotate(-68.7)"/>
  <rect class="st3" x="294.9" y="233.9" width="13.1" height="13.1" transform="translate(-32.1 434) rotate(-68.7)"/>
  <rect class="st10" x="315.9" y="242.2" width="13.2" height="13.2" transform="translate(-26.4 458.8) rotate(-68.7)"/>
  <rect class="st3" x="315.9" y="242.1" width="13.1" height="13.1" transform="translate(-26.4 458.8) rotate(-68.7)"/>
  <rect class="st10" x="336.8" y="250.3" width="13.2" height="13.2" transform="translate(-20.7 483.5) rotate(-68.7)"/>
  <rect class="st3" x="336.8" y="250.3" width="13.1" height="13.1" transform="translate(-20.7 483.4) rotate(-68.7)"/>
  <rect class="st10" x="357.7" y="258.5" width="13.2" height="13.2" transform="translate(-15 508.2) rotate(-68.7)"/>
  <rect class="st3" x="357.7" y="258.5" width="13.1" height="13.1" transform="translate(-15 508.1) rotate(-68.7)"/>
  <rect class="st10" x="378.6" y="266.7" width="13.2" height="13.2" transform="translate(-9.4 532.9) rotate(-68.7)"/>
  <rect class="st3" x="378.6" y="266.7" width="13.1" height="13.1" transform="translate(-9.3 532.8) rotate(-68.7)"/>
  <rect class="st10" x="399.5" y="274.8" width="13.2" height="13.2" transform="translate(-3.6 557.5) rotate(-68.7)"/>
  <rect class="st3" x="399.6" y="274.8" width="13.1" height="13.1" transform="translate(-3.5 557.6) rotate(-68.7)"/>
  <rect class="st10" x="420.5" y="283" width="13.2" height="13.2" transform="translate(2.2 582.3) rotate(-68.7)"/>
  <rect class="st3" x="420.5" y="283" width="13.1" height="13.1" transform="translate(2.1 582.3) rotate(-68.7)"/>
  <rect class="st10" x="441.3" y="291.1" width="13.2" height="13.2" transform="translate(7.8 606.9) rotate(-68.7)"/>
  <rect class="st3" x="441.4" y="291.2" width="13.1" height="13.1" transform="translate(7.8 606.9) rotate(-68.7)"/>
  <rect class="st10" x="260.4" y="198.7" width="13.2" height="13.2" transform="translate(-21.3 379.4) rotate(-68.7)"/>
  <rect class="st3" x="260.4" y="198.7" width="13.1" height="13.1" transform="translate(-21.2 379.4) rotate(-68.7)"/>
  <rect class="st10" x="281.4" y="206.9" width="13.2" height="13.2" transform="translate(-15.6 404.2) rotate(-68.7)"/>
  <rect class="st3" x="281.4" y="206.9" width="13.1" height="13.1" transform="translate(-15.5 404.2) rotate(-68.7)"/>
  <rect class="st10" x="302.3" y="215.1" width="13.2" height="13.2" transform="translate(-9.9 428.9) rotate(-68.7)"/>
  <rect class="st3" x="302.3" y="215.1" width="13.1" height="13.1" transform="translate(-9.9 428.9) rotate(-68.7)"/>
  <rect class="st10" x="323.2" y="223.2" width="13.2" height="13.2" transform="translate(-4.2 453.6) rotate(-68.7)"/>
  <rect class="st3" x="323.2" y="223.2" width="13.1" height="13.1" transform="translate(-4.1 453.5) rotate(-68.7)"/>
  <rect class="st10" x="344.1" y="231.5" width="13.2" height="13.2" transform="translate(1.5 478.3) rotate(-68.7)"/>
  <rect class="st3" x="344.1" y="231.4" width="13.1" height="13.1" transform="translate(1.5 478.2) rotate(-68.7)"/>
  <rect class="st10" x="365.1" y="239.7" width="13.2" height="13.2" transform="translate(7.2 503.1) rotate(-68.7)"/>
  <rect class="st3" x="365.1" y="239.7" width="13.1" height="13.1" transform="translate(7.2 503) rotate(-68.7)"/>
  <rect class="st10" x="386" y="247.7" width="13.2" height="13.2" transform="translate(13 527.7) rotate(-68.7)"/>
  <rect class="st3" x="386" y="247.8" width="13.1" height="13.1" transform="translate(13 527.7) rotate(-68.7)"/>
  <rect class="st10" x="406.8" y="255.9" width="13.2" height="13.2" transform="translate(18.7 552.3) rotate(-68.7)"/>
  <rect class="st3" x="406.9" y="255.9" width="13.1" height="13.1" transform="translate(18.7 552.4) rotate(-68.7)"/>
  <rect class="st10" x="427.8" y="264.1" width="13.2" height="13.2" transform="translate(24.4 577.1) rotate(-68.7)"/>
  <rect class="st3" x="427.8" y="264" width="13.1" height="13.1" transform="translate(24.5 577) rotate(-68.7)"/>
  <rect class="st10" x="448.6" y="272.2" width="13.2" height="13.2" transform="translate(30.1 601.7) rotate(-68.7)"/>
  <rect class="st3" x="448.8" y="272.3" width="13.1" height="13.1" transform="translate(30.2 601.8) rotate(-68.7)"/>
  <rect class="st6" x="205.7" y="370" width="96" height="172.4" transform="translate(-265.6 508.7) rotate(-66.7)"/>
  <rect class="st4" x="205.8" y="370.2" width="95.8" height="172.1" transform="translate(-265.7 508.7) rotate(-66.7)"/>
  <rect class="st7" x="216.6" y="385.5" width="80.1" height="157.3" transform="translate(-271.2 516.3) rotate(-66.7)"/>
  <path class="st5" d="M181.4,424.9c1.6-3.7,6-5.5,9.7-3.8,3.7,1.6,5.5,6,3.8,9.7-1.6,3.7-6,5.5-9.7,3.8-3.7-1.6-5.5-6-3.8-9.7ZM228.9,421.3l-19-8.2M223,434.8l-19-8.2M217.3,448.3l-19-8.2M211.4,461.8l-19-8.2M186.2,468.2l118.1,50.8M216.1,398.7l118.1,50.8M338.3,440.3l-37.9,88M220.1,389.4l-37.9,88"/>
  <rect class="st10" x="327.4" y="487.5" width="19.3" height="8.9" transform="translate(-248.1 607) rotate(-66.7)"/>
  <polygon class="st1" points="337.2 502.5 329.2 499 336.8 481.3 344.9 484.7 337.2 502.5"/>
  <path class="st10" d="M341,509.3l-4.1,4.5,76.1-47.9c-1.2-.5-2.6-.3-3.7.4l-68.3,43.1h0Z"/>
  <polygon class="st5" points="401.1 469.5 340 507.9 346.5 518 407.5 479.6 401.1 469.5"/>
  <g>
    <path class="st10" d="M410.5,463.4l-9.3,5.9,6.4,10.2,9.3-5.9c1.7-1,2.1-3.2,1.1-4.8l-2.7-4.4c-1-1.7-3.2-2.1-4.8-1.1"/>
    <path class="st5" d="M333.6,514.9l3.7,5.9M325.2,524.3l21.2-6.2-6.4-10.2-14.8,16.5ZM410.4,463.5l-9.3,5.9,6.4,10.2,9.3-5.9c1.7-1,2.1-3.2,1.1-4.8l-2.7-4.3c-1-1.6-3.2-2.1-4.8-1.1h0Z"/>
  </g>
</svg>