<?xml version="1.0" encoding="UTF-8"?>
<svg id="SVGDoc" xmlns="http://www.w3.org/2000/svg" version="1.1" xmlns:avocode="https://avocode.com/" viewBox="0 0 250 247">
  <!-- Generator: Adobe Illustrator 29.5.1, SVG Export Plug-In . SVG Version: 2.1.0 Build 141)  -->
  <defs>
    <style>
      .st0, .st1 {
        stroke: #887580;
      }

      .st0, .st1, .st2, .st3 {
        fill: none;
        stroke-width: 3px;
      }

      .st0, .st2 {
        stroke-linecap: round;
        stroke-linejoin: round;
      }

      .st1, .st4, .st3, .st5, .st6 {
        stroke-miterlimit: 10;
      }

      .st7 {
        fill: #f05a2c;
      }

      .st8 {
        fill: #fafdff;
      }

      .st9 {
        fill: #f4eee4;
      }

      .st2, .st4, .st3, .st5, .st6 {
        stroke: #000;
      }

      .st10 {
        fill: #d06859;
      }

      .st11 {
        fill: #fdc037;
      }

      .st12, .st4 {
        fill: #b6ad8e;
      }

      .st13 {
        fill: #d0e3e3;
      }

      .st5 {
        fill: #424143;
      }

      .st6 {
        fill: #887580;
      }
    </style>
  </defs>
  <rect class="st13" x="140.2" y="190" width="109.6" height="21.1"/>
  <rect class="st2" x="140.2" y="190" width="109.6" height="21"/>
  <line class="st2" x1="156.8" y1="190" x2="156.8" y2="211"/>
  <line class="st0" x1="233.2" y1="190" x2="233.2" y2="211"/>
  <rect class="st12" x="117.9" y="169" width="109.6" height="21.1"/>
  <rect class="st2" x="118" y="169" width="109.6" height="21"/>
  <line class="st0" x1="134.6" y1="169" x2="134.6" y2="190"/>
  <line class="st0" x1="210.9" y1="169" x2="210.9" y2="190"/>
  <rect class="st4" x=".2" y="190" width="109.6" height="21.1"/>
  <rect class="st0" x=".2" y="190" width="109.6" height="21"/>
  <rect class="st8" x=".2" y="196.2" width="109.6" height="8.7"/>
  <rect class="st2" x=".2" y="196.2" width="109.6" height="8.6"/>
  <rect class="st9" x="105.4" y="120.1" width="7.5" height="69.8" transform="translate(-38.7 36.4) rotate(-16.1)"/>
  <rect class="st3" x="105.4" y="120.1" width="7.5" height="69.7" transform="translate(-38.8 36.5) rotate(-16.1)"/>
  <rect class="st9" x="119.4" y="116" width="7.5" height="69.8" transform="translate(-37.1 40.1) rotate(-16.1)"/>
  <rect class="st3" x="119.4" y="116.1" width="7.5" height="69.7" transform="translate(-37.1 40.2) rotate(-16.1)"/>
  <rect class="st9" x="92.5" y="86.9" width="69.8" height="7.5" transform="translate(-28.7 81.9) rotate(-32.2)"/>
  <rect class="st3" x="92.6" y="86.9" width="69.7" height="7.5" transform="translate(-28.7 82) rotate(-32.3)"/>
  <rect class="st9" x="100.2" y="99.2" width="69.8" height="7.5" transform="translate(-34.1 87.9) rotate(-32.2)"/>
  <rect class="st3" x="100.3" y="99.2" width="69.7" height="7.5" transform="translate(-34.1 88) rotate(-32.2)"/>
  <path class="st11" d="M123.4,182.5h0c-12.9,0-23.3,10.4-23.3,23.3v8.2h46.7v-8.2c0-12.9-10.4-23.3-23.3-23.3"/>
  <path class="st3" d="M128.2,179.6h0c-12.9,0-23.3,10.4-23.3,23.3v8.2h46.6v-8.2c0-12.9-10.4-23.3-23.3-23.3Z"/>
  <path class="st10" d="M145.9,200.5h-35.3c-5.8,0-10.5,4.7-10.5,10.5h56.4c0-5.8-4.7-10.5-10.5-10.5"/>
  <path class="st3" d="M145.9,200.6h-35.3c-5.8,0-10.5,4.7-10.5,10.5h56.3c0-5.8-4.7-10.5-10.5-10.5Z"/>
  <path class="st5" d="M89.7,116.4c0-8.4,6.8-15.2,15.2-15.2s15.2,6.8,15.2,15.2-6.8,15.2-15.2,15.2-15.2-6.8-15.2-15.2"/>
  <path class="st1" d="M89.7,116.4c0-8.4,6.8-15.2,15.2-15.2s15.2,6.8,15.2,15.2-6.8,15.2-15.2,15.2-15.2-6.8-15.2-15.2Z"/>
  <path class="st13" d="M98.2,116.4c0-3.7,3-6.7,6.7-6.7s6.7,3,6.7,6.7-3,6.7-6.7,6.7-6.7-3-6.7-6.7"/>
  <path class="st1" d="M98.2,116.4c0-3.7,3-6.7,6.7-6.7s6.7,3,6.7,6.7-3,6.7-6.7,6.7-6.7-3-6.7-6.7Z"/>
  <path class="st11" d="M203.3,71.9l-39.3,22.9-15-25.8c-6.3-10.8-2.6-24.8,8.2-31.1,10.8-6.3,24.8-2.6,31.1,8.2l15,25.8Z"/>
  <path class="st3" d="M207.8,71.9l-39.2,22.8-15-25.8c-6.3-10.8-2.6-24.7,8.2-31,10.8-6.3,24.7-2.6,31,8.2l15,25.8Z"/>
  <path class="st11" d="M221,83l-56.1,32.7-1.5-2.6c-4.3-7.4-1.8-16.8,5.6-21.1l29.4-17.1c7.4-4.3,16.8-1.8,21.1,5.6l1.5,2.6Z"/>
  <path class="st3" d="M225.5,83l-56,32.6-1.5-2.6c-4.3-7.4-1.8-16.8,5.6-21.1l29.3-17.1c7.4-4.3,16.8-1.8,21.1,5.6l1.5,2.6Z"/>
  <path class="st8" d="M204.1,110.6h0c-4.2,2.4-9.5,1-12-3.2l-2.2-3.7,15.1-8.8,2.2,3.7c2.4,4.2,1,9.5-3.2,12"/>
  <path class="st3" d="M204.1,110.6h0c-4.2,2.4-9.5,1-11.9-3.2l-2.2-3.7,15.1-8.8,2.2,3.7c2.4,4.2,1,9.5-3.2,11.9Z"/>
  <path class="st12" d="M37.8,129.4l2.4,15.3c.9,5.8,6,10,11.8,9.9h5.2c0-.1,1.4-5.1,1.4-5.1,1.6-5.6-1.2-11.6-6.6-13.9l-14.2-6.1Z"/>
  <path class="st2" d="M57.1,154.4l-7.5-9.6M37.8,129.5l2.4,15.2c.9,5.8,5.9,10,11.8,9.9h5.2c0-.1,1.4-5.1,1.4-5.1,1.6-5.6-1.2-11.6-6.6-13.9l-14.1-6.1Z"/>
  <path class="st7" d="M40.1,164.2c0-11,8.9-11.6,19.9-11.6s19.9.6,19.9,11.6-6.2,22.4-14.7,24.7c-1.7.4-3.4-1.6-5.2-1.6s-3.4,2-5,1.6c-8.6-2.2-14.9-15.4-14.9-24.7"/>
  <path class="st2" d="M40.1,164.2c0-11,8.9-11.6,19.9-11.6s19.9.6,19.9,11.6-6.2,22.3-14.7,24.6c-1.7.4-3.4-1.6-5.2-1.6s-3.4,2-5,1.6c-8.6-2.2-14.9-15.4-14.9-24.7Z"/>
  <path class="st10" d="M60,152.6s-.9-8.8,4.8-14.5"/>
  <path class="st6" d="M57.9,152.8c-.3-1.6-.4-2.9-.4-4.4,0-1.5.1-3,.4-4.5.3-1.5.7-3,1.4-4.5.6-1.5,1.5-2.9,2.6-4.3h0c1.4-1.9,4.1-2.2,6-.8,1.9,1.4,2.2,4.1.8,6-.2.3-.5.6-.8.8-.7.6-1.5,1.2-2.1,2-.6.8-1.2,1.7-1.7,2.7-.5,1-.9,2.1-1.2,3.2-.3,1.1-.5,2.4-.6,3.4v.2c-.1,1.2-1.2,2.1-2.4,1.9-1,0-1.7-.8-1.9-1.8"/>
</svg>